<svg data-name="Icon feather-shopping-cart" xmlns="http://www.w3.org/2000/svg" width="76.333" height="73" viewBox="0 0 76.333 73">
    <path data-name="Path 1935" d="M18.364 33.182A3.182 3.182 0 1 1 15.182 30a3.182 3.182 0 0 1 3.182 3.182z" transform="translate(12.939 35.136)" style="fill:none;stroke:#561d94;stroke-linecap:round;stroke-linejoin:round;stroke-width:3px"/>
    <path data-name="Path 1936" d="M34.864 33.182A3.182 3.182 0 1 1 31.682 30a3.182 3.182 0 0 1 3.182 3.182z" transform="translate(33.606 35.136)" style="fill:none;stroke:#561d94;stroke-linecap:round;stroke-linejoin:round;stroke-width:3px"/>
    <path data-name="Path 1937" d="M1.5 1.5h13.333l8.933 45.445a6.7 6.7 0 0 0 6.667 5.464h32.4a6.7 6.7 0 0 0 6.667-5.464l5.333-28.475H18.167" style="fill:none;stroke:#561d94;stroke-linecap:round;stroke-linejoin:round;stroke-width:3px"/>
</svg>
