<svg xmlns="http://www.w3.org/2000/svg" width="255.919" height="188.595" viewBox="0 0 255.919 188.595">
  <defs>
    <style>
      .cls-1 {
        fill: #fac32b;
      }

      .cls-2 {
        fill: #b83994;
      }

      .cls-3 {
        fill: #f17121;
      }

      .cls-4 {
        fill: #00aabe;
      }

      .cls-5 {
        isolation: isolate;
      }
    </style>
  </defs>
  <g id="Group_6681" data-name="Group 6681" transform="translate(36.829 0)">
    <g id="Group_2" data-name="Group 2" transform="translate(19.762)">
      <g id="Group_96" data-name="Group 96">
        <path id="Path_11421" data-name="Path 11421" class="cls-1" d="M246.136,739.374c1.9-2.436,3.623-4.46,5.128-6.63,1.1-1.587,2.6-3.516,1.37-5.364-1.179-1.767-3.337-.551-5.082-.374a4.2,4.2,0,0,0-3.648,2.887,133.85,133.85,0,0,1-18.242,30.374,56.376,56.376,0,0,1-6.955,6.984c-2.075,1.777-3.9,1.174-4.523-1.506-.939-4.079-1.464-8.252-2.219-12.376-.431-2.378-.943-4.742-1.51-7.569L204.7,749.93l-.345-.3c1.175-1.256,2.3-2.568,3.531-3.786,11.644-11.645,25-20.518,41.025-24.911a109.816,109.816,0,0,1,11.552-2.029,9.2,9.2,0,0,1,2.3.036c2.236.209,3.018,1.417,2.012,3.446a23.7,23.7,0,0,1-2.8,4.161A66.195,66.195,0,0,1,246.136,739.374Z" transform="translate(-133.491 -660.266)"/>
        <path id="Path_11422" data-name="Path 11422" class="cls-2" d="M176.228,743.455a45.543,45.543,0,0,0-9.219,12.759,3.057,3.057,0,0,0,2.833,4.506,59.893,59.893,0,0,0,7.911-.141,7.6,7.6,0,0,0,1-.164l.209.519a36.766,36.766,0,0,1-6.142,2.554,62.178,62.178,0,0,1-10.54,1.5c-4.089.2-6.022-2.256-4.519-6.087a48.112,48.112,0,0,1,5.8-10.625,135.332,135.332,0,0,1,24.584-24.658,299.174,299.174,0,0,1,60.3-38.854,83.271,83.271,0,0,1,23.236-7.806c3.974-.6,5.261,1.836,3.836,5.187a14.425,14.425,0,0,1-5.36,6.154c-.677-1.219-1.222-3.346-2.04-3.449a15.337,15.337,0,0,0-6.139,1,24.743,24.743,0,0,1,9.506,11.329c-31.848,17.1-60.891,37.873-85.938,64.564Zm50.22-38.782a14.583,14.583,0,0,0,10.336,1.979,22.442,22.442,0,0,1-5.481-2.67C229.227,702.094,228.08,703.353,226.447,704.673Z" transform="translate(-152.12 -676.868)"/>
        <path id="Path_11423" data-name="Path 11423" class="cls-3" d="M189.635,779.588a19.21,19.21,0,0,1-14.065,3.539,3.444,3.444,0,0,1-3.157-4.541,23.225,23.225,0,0,1,2.329-6.021,92.961,92.961,0,0,1,18.2-21.925,335,335,0,0,1,58.04-43.669,130.762,130.762,0,0,1,26.774-13.083A23.03,23.03,0,0,1,284.1,692.6a5.9,5.9,0,0,1,4.445,1.439,5.062,5.062,0,0,1-.366,4.6,88.346,88.346,0,0,1-7.585,9.2,18.456,18.456,0,0,1-4.989,3.581c1.1-1.525,2.277-3,3.286-4.587a27.948,27.948,0,0,0,2.487-4.6c.717-1.809-.255-3-2.005-2.34-3.924,1.479-7.739,3.234-11.559,4.995-.465.209-.709,1.139-.854,1.776-1.133,5.043-2.169,10.109-3.372,15.135a2.859,2.859,0,0,1-1.659,1.8,97.22,97.22,0,0,0-40.814,23.428,9.774,9.774,0,0,1-1,.691c-.4-.54-.77-1.023-1.129-1.509-3.151-4.24-7.056-4.281-9.668.328a38.986,38.986,0,0,0-3.907,10.117c-1.324,5.568-2.053,11.277-3.091,16.914-.339,1.831-.4,4.058-2.427,4.83s-3.412-.978-4.632-2.244c-3.006-3.119-5.857-6.388-9.182-10.041a115.476,115.476,0,0,0-6.227,9.831c-1.292,2.536.155,4.242,3.137,4.356a23.663,23.663,0,0,0,3.359-.116C187.452,780.036,188.541,779.783,189.635,779.588Z" transform="translate(-146.195 -670.658)"/>
        <path id="Path_11424" data-name="Path 11424" class="cls-4" d="M172.788,729.375c-.668-2.2-1.227-3.92-1.705-5.657s-.887-3.516-1.464-5.807c-3.278,4.1-6.4,7.815-6.742,12.968-.187,2.826,1.991,3.891,4.29,4.717a11.731,11.731,0,0,1-11.135,1.782A4.9,4.9,0,0,1,154,731.144a45.748,45.748,0,0,1,4.855-9.457,93,93,0,0,1,21.933-21.005,183.809,183.809,0,0,1,38.577-21.692,1.735,1.735,0,0,1,1.312-.121l-11.421,6.637c1.757,1.393,3.4,2.533,4.842,3.885,1.405,1.32,2.608,2.858,4.083,4.506A297.467,297.467,0,0,0,172.788,729.375Z" transform="translate(-153.574 -676.107)"/>
        <path id="Path_11425" data-name="Path 11425" class="cls-4" d="M191.553,681.345,164.769,700.1C163.7,690.457,181,678.209,191.553,681.345Z" transform="translate(-149.165 -675.295)"/>
      </g>
    </g>
    <g id="SMART_DENTAL_COMPLIANCE_TRAINING" data-name="SMART DENTAL COMPLIANCE TRAINING" class="cls-5" transform="translate(-36.829 136.129)">
      <g id="Group_3" data-name="Group 3" class="cls-5">
        <path id="Path_445" data-name="Path 445" d="M277.277,715.826a19.492,19.492,0,0,1-4.166-.455,12.605,12.605,0,0,1-3.612-1.335,2.129,2.129,0,0,1-1.14-1.318,2.41,2.41,0,0,1,.1-1.612,1.851,1.851,0,0,1,2.767-.943,10.263,10.263,0,0,0,2.9,1.106,14.4,14.4,0,0,0,3.157.358,5.945,5.945,0,0,0,3.369-.731,2.191,2.191,0,0,0,1.026-1.841,1.792,1.792,0,0,0-.715-1.5,6.624,6.624,0,0,0-2.507-.944l-3.678-.781q-6.152-1.3-6.151-6.381a6.417,6.417,0,0,1,1.171-3.824,7.631,7.631,0,0,1,3.272-2.555,12.118,12.118,0,0,1,4.865-.912,14.7,14.7,0,0,1,3.581.439,10.513,10.513,0,0,1,3.093,1.286,2.055,2.055,0,0,1,1.009,1.269,2.287,2.287,0,0,1-.114,1.5,1.834,1.834,0,0,1-1.041,1.009,2.232,2.232,0,0,1-1.807-.228,9.218,9.218,0,0,0-2.278-.813,11.647,11.647,0,0,0-2.473-.261,5.435,5.435,0,0,0-3.175.8,2.436,2.436,0,0,0-1.122,2.068,1.92,1.92,0,0,0,.684,1.53,5.513,5.513,0,0,0,2.376.943l3.678.782q6.315,1.366,6.315,6.184a6.282,6.282,0,0,1-1.156,3.759,7.5,7.5,0,0,1-3.254,2.507A12.613,12.613,0,0,1,277.277,715.826Z" transform="translate(-268.265 -692.163)"/>
        <path id="Path_446" data-name="Path 446" d="M293.149,715.764a2.222,2.222,0,0,1-1.693-.618,2.406,2.406,0,0,1-.586-1.724V694.575a2.325,2.325,0,0,1,.617-1.742,2.417,2.417,0,0,1,1.759-.6,2.691,2.691,0,0,1,1.545.392,3.662,3.662,0,0,1,1.059,1.269l6.965,12.727,6.966-12.727a3.659,3.659,0,0,1,1.058-1.269,2.625,2.625,0,0,1,1.514-.392,2.312,2.312,0,0,1,1.709.6,2.36,2.36,0,0,1,.6,1.742v18.847a2.3,2.3,0,1,1-4.589,0V701.476l-5.338,9.6a3.237,3.237,0,0,1-.83.928,1.965,1.965,0,0,1-1.156.309A2.034,2.034,0,0,1,301.58,712a2.759,2.759,0,0,1-.815-.928l-5.338-9.5v11.849A2.043,2.043,0,0,1,293.149,715.764Z" transform="translate(-269.131 -692.166)"/>
        <path id="Path_447" data-name="Path 447" d="M321.041,715.764a2.142,2.142,0,0,1-1.954-.912,2.238,2.238,0,0,1,.034-2.246l8.333-18.26a3.97,3.97,0,0,1,1.237-1.611,2.976,2.976,0,0,1,3.32,0,3.759,3.759,0,0,1,1.2,1.611l8.4,18.26a2.3,2.3,0,0,1,.049,2.262,2.012,2.012,0,0,1-1.839.9,2.528,2.528,0,0,1-1.708-.521,4.25,4.25,0,0,1-1.059-1.626l-1.367-3.126H324.979l-1.335,3.126a4.783,4.783,0,0,1-1.041,1.643A2.24,2.24,0,0,1,321.041,715.764Zm9.244-17.87-3.613,8.658h7.357l-3.679-8.658Z" transform="translate(-270.201 -692.166)"/>
        <path id="Path_448" data-name="Path 448" d="M348.478,715.776a2.483,2.483,0,0,1-1.888-.684,2.671,2.671,0,0,1-.651-1.921V695.107a2.273,2.273,0,0,1,2.572-2.572h7.91a8.612,8.612,0,0,1,5.924,1.856,6.573,6.573,0,0,1,2.083,5.175,6.8,6.8,0,0,1-1.318,4.28,6.607,6.607,0,0,1-3.759,2.328,4.919,4.919,0,0,1,2.832,2.506l2.018,3.744a2.6,2.6,0,0,1,.261,2.294q-.424,1.06-2.051,1.059a3.108,3.108,0,0,1-1.757-.456,3.622,3.622,0,0,1-1.172-1.4l-3.125-5.763a2.67,2.67,0,0,0-1.2-1.236,4.058,4.058,0,0,0-1.692-.326h-2.474v6.575a2.715,2.715,0,0,1-.635,1.921A2.429,2.429,0,0,1,348.478,715.776Zm2.506-12.825h4.524q4.071,0,4.07-3.256,0-3.221-4.07-3.221h-4.524Z" transform="translate(-271.241 -692.177)"/>
        <path id="Path_449" data-name="Path 449" d="M376.731,715.776a2.485,2.485,0,0,1-1.888-.684,2.674,2.674,0,0,1-.65-1.921V696.7h-5.762a2.083,2.083,0,1,1,0-4.166H385a2.083,2.083,0,1,1,0,4.166h-5.761v16.471a2.717,2.717,0,0,1-.635,1.921A2.431,2.431,0,0,1,376.731,715.776Z" transform="translate(-272.022 -692.177)"/>
        <path id="Path_450" data-name="Path 450" d="M402.29,715.483a2.33,2.33,0,0,1-2.636-2.636V695.172a2.33,2.33,0,0,1,2.636-2.637h6.348q5.858,0,9.08,2.979t3.224,8.478q0,5.5-3.224,8.5t-9.08,2.995Zm2.409-4.133h3.646q7.324,0,7.323-7.358,0-7.322-7.323-7.323H404.7Z" transform="translate(-273.299 -692.177)"/>
        <path id="Path_451" data-name="Path 451" d="M428.488,715.483a2.33,2.33,0,0,1-2.637-2.636V695.172a2.33,2.33,0,0,1,2.637-2.637h11.359a1.97,1.97,0,1,1,0,3.939h-9.179v5.37H439.1a1.986,1.986,0,1,1,0,3.971h-8.431v5.729h9.179a1.969,1.969,0,1,1,0,3.938Z" transform="translate(-274.303 -692.177)"/>
        <path id="Path_452" data-name="Path 452" d="M448.672,715.764q-2.344,0-2.343-2.441V694.77a2.681,2.681,0,0,1,.6-1.888,2.088,2.088,0,0,1,1.611-.652,2.3,2.3,0,0,1,1.334.342,5.71,5.71,0,0,1,1.108,1.123l10.546,13.443v-12.5a2.344,2.344,0,1,1,4.687,0v18.783a2.508,2.508,0,0,1-.554,1.708,1.883,1.883,0,0,1-1.5.635,2.58,2.58,0,0,1-1.448-.358,5.324,5.324,0,0,1-1.156-1.141l-10.546-13.443v12.5Q451.016,715.763,448.672,715.764Z" transform="translate(-275.088 -692.166)"/>
        <path id="Path_453" data-name="Path 453" d="M479.726,715.776a2.482,2.482,0,0,1-1.888-.684,2.67,2.67,0,0,1-.651-1.921V696.7h-5.761a2.083,2.083,0,1,1,0-4.166h16.567a2.083,2.083,0,1,1,0,4.166h-5.761v16.471a2.72,2.72,0,0,1-.635,1.921A2.431,2.431,0,0,1,479.726,715.776Z" transform="translate(-275.968 -692.177)"/>
        <path id="Path_454" data-name="Path 454" d="M491.12,715.764a2.142,2.142,0,0,1-1.953-.912,2.237,2.237,0,0,1,.033-2.246l8.333-18.26a3.979,3.979,0,0,1,1.237-1.611,2.976,2.976,0,0,1,3.32,0,3.769,3.769,0,0,1,1.2,1.611l8.4,18.26a2.3,2.3,0,0,1,.049,2.262,2.013,2.013,0,0,1-1.839.9,2.53,2.53,0,0,1-1.709-.521,4.246,4.246,0,0,1-1.058-1.626l-1.368-3.126H495.058l-1.334,3.126a4.78,4.78,0,0,1-1.042,1.643A2.242,2.242,0,0,1,491.12,715.764Zm9.244-17.87-3.613,8.658h7.357l-3.678-8.658Z" transform="translate(-276.718 -692.166)"/>
        <path id="Path_455" data-name="Path 455" d="M518.59,715.48a2.565,2.565,0,0,1-1.921-.667,2.612,2.612,0,0,1-.651-1.9V695.04a2.615,2.615,0,0,1,.651-1.9,2.518,2.518,0,0,1,1.888-.667,2.244,2.244,0,0,1,2.506,2.572v16.176h8.725a2.133,2.133,0,1,1,0,4.264Z" transform="translate(-277.758 -692.175)"/>
      </g>
      <g id="Group_4" data-name="Group 4" class="cls-5" transform="translate(0.565 37.717)">
        <path id="Path_456" data-name="Path 456" d="M275.993,746.132a7.646,7.646,0,0,1-3.834-.906,6.074,6.074,0,0,1-2.452-2.564,9.382,9.382,0,0,1,0-7.822,6.1,6.1,0,0,1,2.452-2.553,7.646,7.646,0,0,1,3.834-.905,8.539,8.539,0,0,1,2.2.285,6.515,6.515,0,0,1,1.893.814,1.329,1.329,0,0,1,.63.824,1.2,1.2,0,0,1-.121.875,1.1,1.1,0,0,1-.671.529,1.184,1.184,0,0,1-1-.234,4.5,4.5,0,0,0-1.363-.59,6.1,6.1,0,0,0-1.485-.184,4.149,4.149,0,0,0-3.316,1.313,6.7,6.7,0,0,0,0,7.476,4.13,4.13,0,0,0,3.316,1.322,6.1,6.1,0,0,0,1.525-.193,5.2,5.2,0,0,0,1.424-.6A1.207,1.207,0,0,1,280,742.8a1.033,1.033,0,0,1,.642.5,1.2,1.2,0,0,1,.132.825,1.274,1.274,0,0,1-.549.793,6.048,6.048,0,0,1-1.943.906A8.5,8.5,0,0,1,275.993,746.132Z" transform="translate(-268.853 -731.383)"/>
        <path id="Path_457" data-name="Path 457" d="M289.648,746.132a7.041,7.041,0,0,1-3.632-.915,6.225,6.225,0,0,1-2.411-2.574,9.347,9.347,0,0,1,0-7.8,6.2,6.2,0,0,1,2.4-2.553,7.778,7.778,0,0,1,7.283,0,6.2,6.2,0,0,1,2.4,2.553,8.339,8.339,0,0,1,.854,3.885,8.451,8.451,0,0,1-.854,3.917,6.247,6.247,0,0,1-2.4,2.574A7.024,7.024,0,0,1,289.648,746.132Zm0-2.238a3.723,3.723,0,0,0,3.072-1.363,7.092,7.092,0,0,0,.01-7.568,4.2,4.2,0,0,0-6.155,0,7.069,7.069,0,0,0,0,7.568A3.724,3.724,0,0,0,289.648,743.895Z" transform="translate(-269.386 -731.383)"/>
        <path id="Path_458" data-name="Path 458" d="M301.066,746.094a1.061,1.061,0,0,1-1.18-1.221V732.645a1.079,1.079,0,0,1,1.22-1.22,1.454,1.454,0,0,1,.8.193,1.729,1.729,0,0,1,.539.661l4.7,8.688,4.7-8.688a1.767,1.767,0,0,1,.529-.661,1.4,1.4,0,0,1,.793-.193,1.062,1.062,0,0,1,1.18,1.22v12.227a1.181,1.181,0,1,1-2.361,0v-8.6l-3.824,6.978a1.672,1.672,0,0,1-.427.509,1.021,1.021,0,0,1-.611.163,1.067,1.067,0,0,1-.631-.173,1.492,1.492,0,0,1-.427-.5l-3.825-6.936v8.564A1.062,1.062,0,0,1,301.066,746.094Z" transform="translate(-270.042 -731.385)"/>
        <path id="Path_459" data-name="Path 459" d="M319.507,746.1a1.169,1.169,0,0,1-1.3-1.343v-11.84a1.168,1.168,0,0,1,1.322-1.322h4.9a5.191,5.191,0,0,1,3.643,1.179,4.891,4.891,0,0,1,0,6.6,5.159,5.159,0,0,1-3.643,1.19h-3.621v4.191A1.169,1.169,0,0,1,319.507,746.1Zm1.3-7.589h3.215q2.807,0,2.807-2.441,0-2.422-2.807-2.421h-3.215Z" transform="translate(-270.744 -731.391)"/>
        <path id="Path_460" data-name="Path 460" d="M333.32,745.935A1.178,1.178,0,0,1,332,744.592V732.853a1.3,1.3,0,1,1,2.6,0v10.863h5.9q1.14,0,1.139,1.1a1,1,0,0,1-1.139,1.119Z" transform="translate(-271.272 -731.389)"/>
        <path id="Path_461" data-name="Path 461" d="M345.189,746.094a1.17,1.17,0,0,1-1.3-1.343V732.767a1.3,1.3,0,1,1,2.6,0V744.75A1.169,1.169,0,0,1,345.189,746.094Z" transform="translate(-271.728 -731.385)"/>
        <path id="Path_462" data-name="Path 462" d="M349.954,746.094a1.107,1.107,0,0,1-1.018-.489,1.184,1.184,0,0,1,.021-1.181l5.371-11.9a1.94,1.94,0,0,1,.641-.844,1.513,1.513,0,0,1,.865-.254,1.486,1.486,0,0,1,.844.254,1.954,1.954,0,0,1,.64.844l5.39,11.9a1.242,1.242,0,0,1,.041,1.192,1.044,1.044,0,0,1-.976.478,1.3,1.3,0,0,1-.885-.275,2.3,2.3,0,0,1-.56-.844l-1.018-2.362h-7l-1,2.362a2.638,2.638,0,0,1-.55.853A1.154,1.154,0,0,1,349.954,746.094Zm5.838-11.678-2.583,6.123h5.208l-2.584-6.123Z" transform="translate(-271.916 -731.385)"/>
        <path id="Path_463" data-name="Path 463" d="M366.811,746.094a1.1,1.1,0,0,1-1.22-1.262v-12.1a1.361,1.361,0,0,1,.315-.966,1.08,1.08,0,0,1,.823-.336,1.188,1.188,0,0,1,.7.172,3.457,3.457,0,0,1,.559.581l7.263,9.42v-8.931a1.211,1.211,0,1,1,2.421,0v12.206a1.313,1.313,0,0,1-.285.9.976.976,0,0,1-.773.326,1.321,1.321,0,0,1-.742-.184,2.888,2.888,0,0,1-.6-.59l-7.263-9.44v8.952Q368.011,746.094,366.811,746.094Z" transform="translate(-272.559 -731.385)"/>
        <path id="Path_464" data-name="Path 464" d="M388.067,746.132a7.652,7.652,0,0,1-3.834-.906,6.072,6.072,0,0,1-2.451-2.564,9.372,9.372,0,0,1,0-7.822,6.1,6.1,0,0,1,2.451-2.553,7.652,7.652,0,0,1,3.834-.905,8.546,8.546,0,0,1,2.2.285,6.5,6.5,0,0,1,1.892.814,1.333,1.333,0,0,1,.632.824,1.214,1.214,0,0,1-.122.875,1.1,1.1,0,0,1-.672.529,1.181,1.181,0,0,1-1-.234,4.5,4.5,0,0,0-1.364-.59,6.1,6.1,0,0,0-1.485-.184,4.152,4.152,0,0,0-3.316,1.313,6.7,6.7,0,0,0,0,7.476,4.133,4.133,0,0,0,3.316,1.322,6.107,6.107,0,0,0,1.526-.193,5.2,5.2,0,0,0,1.424-.6,1.207,1.207,0,0,1,.976-.223,1.031,1.031,0,0,1,.64.5,1.184,1.184,0,0,1,.133.825,1.281,1.281,0,0,1-.549.793,6.054,6.054,0,0,1-1.943.906A8.492,8.492,0,0,1,388.067,746.132Z" transform="translate(-273.147 -731.383)"/>
        <path id="Path_465" data-name="Path 465" d="M397.182,745.937a1.223,1.223,0,0,1-1.383-1.385V732.978a1.222,1.222,0,0,1,1.383-1.383h7.264q1.056,0,1.057,1.017a.935.935,0,0,1-1.057,1.059H398.3v3.946H404a1.038,1.038,0,1,1,0,2.076h-5.7v4.171h6.144a1.038,1.038,0,1,1,0,2.075Z" transform="translate(-273.717 -731.391)"/>
        <path id="Path_466" data-name="Path 466" d="M418.7,746.132a5.642,5.642,0,0,1-3.631-1.068,3.413,3.413,0,0,1-1.333-2.8,3.894,3.894,0,0,1,.773-2.41,7.3,7.3,0,0,1,2.136-1.841l.122-.061a5.951,5.951,0,0,1-1.139-1.6,3.741,3.741,0,0,1-.347-1.558,3.118,3.118,0,0,1,1.089-2.471,4.235,4.235,0,0,1,2.878-.946,3.905,3.905,0,0,1,2.645.844,2.869,2.869,0,0,1,.977,2.289,3.565,3.565,0,0,1-.619,2.023,6.281,6.281,0,0,1-2.066,1.781l2.747,2.929a10.218,10.218,0,0,0,.854-3.073,1.039,1.039,0,0,1,1.1-1.016q1.118,0,1,1.139a11.528,11.528,0,0,1-.518,2.422,9.861,9.861,0,0,1-.926,2.013l1.669,1.689a1.117,1.117,0,0,1,.387.774.811.811,0,0,1-.3.641,1.193,1.193,0,0,1-.8.255,1.4,1.4,0,0,1-.732-.174,3.415,3.415,0,0,1-.631-.518l-.976-1.018a6.67,6.67,0,0,1-1.995,1.282A6.039,6.039,0,0,1,418.7,746.132Zm.142-2.014a3.789,3.789,0,0,0,2.787-1.141l-3.459-3.579a4.576,4.576,0,0,0-1.474,1.2,2.443,2.443,0,0,0-.438,1.465,1.853,1.853,0,0,0,.662,1.5A2.943,2.943,0,0,0,418.844,744.119Zm.406-10.925a1.665,1.665,0,0,0-1.179.416,1.469,1.469,0,0,0-.448,1.13,1.99,1.99,0,0,0,.255.986,7.344,7.344,0,0,0,.9,1.191,6.108,6.108,0,0,0,1.516-1.14,1.726,1.726,0,0,0,.438-1.159,1.352,1.352,0,0,0-.407-1.059A1.557,1.557,0,0,0,419.249,733.194Z" transform="translate(-274.404 -731.383)"/>
        <path id="Path_467" data-name="Path 467" d="M439.946,746.1a1.17,1.17,0,0,1-1.3-1.343V733.771h-3.967a.98.98,0,0,1-1.119-1.1q0-1.078,1.119-1.078h10.538q1.119,0,1.119,1.078a.98.98,0,0,1-1.119,1.1h-3.967v10.985A1.17,1.17,0,0,1,439.946,746.1Z" transform="translate(-275.164 -731.391)"/>
        <path id="Path_468" data-name="Path 468" d="M449.69,746.1a1.17,1.17,0,0,1-1.3-1.343v-11.84a1.168,1.168,0,0,1,1.322-1.322h4.9a5.327,5.327,0,0,1,3.641,1.128,3.994,3.994,0,0,1,1.282,3.164,3.879,3.879,0,0,1-3.234,4.069,3.014,3.014,0,0,1,1.708,1.567l1.526,2.827a1.406,1.406,0,0,1,.133,1.2q-.215.55-1.048.55a1.564,1.564,0,0,1-.9-.235,1.982,1.982,0,0,1-.61-.722l-2.055-3.783a2,2,0,0,0-.865-.926,3,3,0,0,0-1.271-.233h-1.933v4.556A1.169,1.169,0,0,1,449.69,746.1Zm1.3-7.833h3.174q2.849,0,2.848-2.319,0-2.3-2.848-2.3h-3.174Z" transform="translate(-275.732 -731.391)"/>
        <path id="Path_469" data-name="Path 469" d="M462.726,746.094a1.105,1.105,0,0,1-1.016-.489,1.185,1.185,0,0,1,.02-1.181l5.371-11.9a1.949,1.949,0,0,1,.641-.844,1.517,1.517,0,0,1,.865-.254,1.481,1.481,0,0,1,.844.254,1.947,1.947,0,0,1,.641.844l5.391,11.9a1.247,1.247,0,0,1,.041,1.192,1.045,1.045,0,0,1-.977.478,1.3,1.3,0,0,1-.885-.275,2.317,2.317,0,0,1-.56-.844l-1.016-2.362h-7l-1,2.362a2.635,2.635,0,0,1-.549.853A1.156,1.156,0,0,1,462.726,746.094Zm5.839-11.678-2.584,6.123h5.208l-2.584-6.123Z" transform="translate(-276.236 -731.385)"/>
        <path id="Path_470" data-name="Path 470" d="M479.666,746.094a1.17,1.17,0,0,1-1.3-1.343V732.767a1.3,1.3,0,1,1,2.6,0V744.75A1.169,1.169,0,0,1,479.666,746.094Z" transform="translate(-276.88 -731.385)"/>
        <path id="Path_471" data-name="Path 471" d="M485.548,746.094a1.1,1.1,0,0,1-1.219-1.262v-12.1a1.361,1.361,0,0,1,.315-.966,1.083,1.083,0,0,1,.824-.336,1.181,1.181,0,0,1,.7.172,3.4,3.4,0,0,1,.56.581l7.263,9.42v-8.931a1.211,1.211,0,1,1,2.42,0v12.206a1.309,1.309,0,0,1-.284.9.976.976,0,0,1-.772.326,1.322,1.322,0,0,1-.743-.184,2.879,2.879,0,0,1-.6-.59l-7.263-9.44v8.952Q486.75,746.094,485.548,746.094Z" transform="translate(-277.109 -731.385)"/>
        <path id="Path_472" data-name="Path 472" d="M501.454,746.094a1.17,1.17,0,0,1-1.3-1.343V732.767a1.3,1.3,0,1,1,2.6,0V744.75A1.169,1.169,0,0,1,501.454,746.094Z" transform="translate(-277.715 -731.385)"/>
        <path id="Path_473" data-name="Path 473" d="M507.337,746.094a1.1,1.1,0,0,1-1.22-1.262v-12.1a1.36,1.36,0,0,1,.315-.966,1.082,1.082,0,0,1,.824-.336,1.185,1.185,0,0,1,.7.172,3.455,3.455,0,0,1,.559.581l7.264,9.42v-8.931a1.21,1.21,0,1,1,2.42,0v12.206a1.308,1.308,0,0,1-.285.9.973.973,0,0,1-.772.326,1.326,1.326,0,0,1-.743-.184,2.886,2.886,0,0,1-.6-.59l-7.262-9.44v8.952Q508.539,746.094,507.337,746.094Z" transform="translate(-277.944 -731.385)"/>
        <path id="Path_474" data-name="Path 474" d="M528.819,746.132a8.294,8.294,0,0,1-4.019-.9,5.963,5.963,0,0,1-2.491-2.544,9.324,9.324,0,0,1,.019-7.842,6.132,6.132,0,0,1,2.523-2.563,8.075,8.075,0,0,1,3.947-.905,9.72,9.72,0,0,1,2.288.275,6.992,6.992,0,0,1,2.167.925.986.986,0,0,1,.518.7,1.287,1.287,0,0,1-.131.825,1.116,1.116,0,0,1-.611.538,1.016,1.016,0,0,1-.9-.132,6.169,6.169,0,0,0-1.567-.651,7.132,7.132,0,0,0-1.769-.2,4.359,4.359,0,0,0-3.449,1.322,5.561,5.561,0,0,0-1.169,3.8,5.425,5.425,0,0,0,1.2,3.8,4.6,4.6,0,0,0,3.56,1.3,8.658,8.658,0,0,0,1.373-.113,9.129,9.129,0,0,0,1.394-.336V740.11h-2.238q-1.059,0-1.059-.977,0-.955,1.059-.956h3.356a.936.936,0,0,1,1.059,1.058v4.943a1.13,1.13,0,0,1-.733,1.2,13.546,13.546,0,0,1-4.333.754Z" transform="translate(-278.531 -731.383)"/>
      </g>
    </g>
  </g>
</svg>
