<svg xmlns="http://www.w3.org/2000/svg" width="69.96" height="70" viewBox="0 0 69.96 70">
    <g data-name="Group 843">
        <path data-name="Path 1938" d="M-553.97 696.879a.742.742 0 0 1-.263-.619 741.12 741.12 0 0 0-.016-8.167 19.574 19.574 0 0 0-.177-2.413 1.294 1.294 0 0 0-1.261-1 1.562 1.562 0 0 0-1.332 1.254 64.96 64.96 0 0 0-.072 2.245c-.03 2.639-.043 5.278-.084 7.917a1.329 1.329 0 0 1-.239.785 3.776 3.776 0 0 0-.812 1.753 2.493 2.493 0 0 1-.357.826 4.174 4.174 0 0 1-.563.644c-1.335 1.377-2.667 2.756-4.014 4.121a1.459 1.459 0 0 0-.365 1.414 1.2 1.2 0 0 0 1.916.72c.686-.57 1.335-1.187 1.982-1.8 1.011-.96 2.007-1.935 3.01-2.9a1.616 1.616 0 0 1 1.08-.481 2.542 2.542 0 0 0 2.385-2.552 2.212 2.212 0 0 0-.818-1.747zm47.251 49.03a3.792 3.792 0 0 0-.161-.356c-.842-1.57-1.645-3.163-2.535-4.7q-9.262-16.039-18.556-32.059-3.049-5.259-6.134-10.5a1.233 1.233 0 0 0-1.42-.629 1.716 1.716 0 0 0-1.132.958l-11.726 20.2q-6.933 11.991-13.823 24c-.625 1.089-1.172 2.227-1.69 3.371a1.017 1.017 0 0 0 1.017 1.447h55.295a.737.737 0 0 0 .4-.076c.756-.544.819-.793.465-1.656zm-53.424-1.178 24.794-42.816.144-.016 24.847 42.9c-1.769.311-49.067.256-49.785-.068zm23.489-9.154c-.26 0-.368.1-.368.357 0 .926-.019 1.853-.006 2.779.006.446.2.629.641.638q1.11.023 2.219 0c.457-.008.638-.2.649-.671s0-.9 0-1.354h-.041c0-.475-.007-.95 0-1.425 0-.226-.076-.315-.31-.313q-1.388.012-2.784-.011zm-.3-19.66c-.022.368-.068.734-.067 1.1q0 7.31.021 14.62a1.27 1.27 0 0 0 .013.354c.024.077.121.185.187.186 1.013.012 2.026.008 3.076.008.012-.144.025-.237.026-.33q.032-7.988.067-15.975c0-.242-.081-.365-.314-.365-.891 0-1.781 0-2.673.012-.227.006-.323.173-.336.39z" transform="translate(576.472 -677.641)" style="fill:#561d94"/>
        <path data-name="Path 1939" d="M-603.2 682.955c.067-.554.13-1.109.2-1.663a20.127 20.127 0 0 1 3.138-8.509 20.823 20.823 0 0 1 12.23-8.981 18.275 18.275 0 0 1 6.185-.755c9.1.664 15.469 5.172 19.009 13.611a11.942 11.942 0 0 1 .486 1.454 1.353 1.353 0 0 1-.959 1.647 1.2 1.2 0 0 1-1.6-.685c-.209-.452-.344-.938-.535-1.4a19.267 19.267 0 0 0-5.02-7.264 19.009 19.009 0 0 0-7.615-4.017 11.2 11.2 0 0 0-3.142-.422c-1.218.013-2.436.009-3.652.051a11.627 11.627 0 0 0-3.738.893 18.349 18.349 0 0 0-11.879 13.744 5.663 5.663 0 0 0-.159 1.276c0 1.6-.025 3.2.06 4.8a12.139 12.139 0 0 0 1.069 4.022 18.109 18.109 0 0 0 11.837 10.854 19.091 19.091 0 0 0 7.05.647c.417-.031.834-.068 1.251-.076a1.226 1.226 0 0 1 1.252 1.093 1.233 1.233 0 0 1-.748 1.46 9.281 9.281 0 0 1-1.817.353 20.414 20.414 0 0 1-9.37-1.306 21.289 21.289 0 0 1-8.367-5.9 20.32 20.32 0 0 1-4.7-9.385c-.2-.929-.273-1.884-.406-2.827-.016-.116-.044-.23-.067-.344z" transform="translate(603.195 -663.01)" style="fill:#561d94"/>
        <path data-name="Path 1940" d="M-506.719 773.182a3.81 3.81 0 0 0-.161-.358c-.842-1.577-1.645-3.176-2.535-4.724q-9.262-16.105-18.556-32.191-3.049-5.281-6.134-10.54a1.231 1.231 0 0 0-1.42-.632 1.719 1.719 0 0 0-1.132.962l-11.726 20.279q-6.933 12.041-13.823 24.1c-.625 1.094-1.172 2.236-1.69 3.385a1.02 1.02 0 0 0 1.017 1.453h55.295a.735.735 0 0 0 .4-.076c.756-.54.819-.791.465-1.658zM-560.143 772l24.794-42.993.144-.017 24.847 43.078c-1.769.312-49.067.256-49.785-.068z" transform="translate(576.472 -704.921)" style="fill:#561d94"/>
        <path data-name="Path 1941" d="M-552.261 698.685a2.55 2.55 0 0 1-2.386 2.562 1.618 1.618 0 0 0-1.079.483c-1 .971-2 1.951-3.01 2.914-.648.617-1.3 1.235-1.982 1.809a1.2 1.2 0 0 1-1.916-.723 1.473 1.473 0 0 1 .365-1.421c1.348-1.369 2.679-2.755 4.014-4.137a4.144 4.144 0 0 0 .563-.647 2.512 2.512 0 0 0 .358-.829 3.79 3.79 0 0 1 .812-1.76 1.345 1.345 0 0 0 .24-.789c.041-2.65.054-5.3.084-7.95.008-.752.039-1.5.072-2.254a1.566 1.566 0 0 1 1.332-1.259 1.3 1.3 0 0 1 1.262 1 19.859 19.859 0 0 1 .177 2.422c.025 2.733.021 5.468.016 8.2a.743.743 0 0 0 .263.622 2.229 2.229 0 0 1 .815 1.757z" transform="translate(575.784 -677.641)" style="fill:#561d94"/>
        <path data-name="Path 1942" d="M-477.57 780.359q-.04 8.021-.067 16.041c0 .093-.014.187-.026.331-1.051 0-2.063 0-3.076-.008-.066 0-.164-.11-.187-.187a1.28 1.28 0 0 1-.013-.356q-.012-7.341-.021-14.681c0-.369.045-.737.067-1.106.013-.216.109-.386.336-.39.891-.013 1.782-.013 2.672-.012.234.002.316.125.315.368z" transform="translate(520.516 -742.173)" style="fill:#561d94"/>
        <path data-name="Path 1943" d="M-477.478 845.112c-.01.468-.192.665-.649.673q-1.109.021-2.219 0c-.446-.009-.635-.193-.641-.641-.013-.931.005-1.861.006-2.791 0-.254.108-.363.368-.359q1.4.019 2.792.012c.234 0 .314.087.31.314-.01.477 0 .953 0 1.431h.04c-.004.449.004.907-.007 1.361z" transform="translate(520.538 -784.108)" style="fill:#561d94"/>
    </g>
</svg>
