<svg xmlns="http://www.w3.org/2000/svg" width="112.172" height="102.938" viewBox="0 0 112.172 102.938">
  <defs>
    <style>
      .cls-1 {
        fill: #551c93;
      }
    </style>
  </defs>
  <g id="Group_8203" data-name="Group 8203" transform="translate(-147.113 -42.845)">
    <g id="Group_6483" data-name="Group 6483" transform="translate(150.346 42.845)">
      <g id="ReuvA6" transform="translate(14.966)">
        <g id="Group_6482" data-name="Group 6482">
          <path id="Path_3018" data-name="Path 3018" class="cls-1" d="M241.559,88.472a3.477,3.477,0,0,1-.324-.292L222.286,71.763a1.992,1.992,0,0,1-.746-1.622c.032-2.758.032-5.483.032-8.241V53.431c0-.941-.422-1.33-1.363-1.363h-8.89c-.973.032-1.363.422-1.363,1.4v6.554a3.857,3.857,0,0,1-.195.584,5.411,5.411,0,0,1-.616-.227c-.1-.065-.162-.162-.26-.227C202.461,54.567,196,48.986,189.58,43.405c-.844-.746-1.265-.746-2.077,0q-11.1,9.685-22.225,19.338a3.238,3.238,0,0,1,1.655,2.855v5.938c6.846-5.938,13.66-11.908,20.506-17.845.941-.811,1.265-.811,2.206,0q20.879,18.1,41.823,36.242a2.207,2.207,0,0,0,1.46.519c1.33-.032,2.628,0,3.958,0h3.926a1.045,1.045,0,0,0,1.071-.779A1.06,1.06,0,0,0,241.559,88.472Zm-17.91-1.687q-17.034-14.844-34.1-29.688c-.811-.746-1.2-.746-2.044-.032-6.846,5.97-13.692,11.972-20.571,17.943v34.2a3.367,3.367,0,0,1-3.374,3.342H152.722v16.19c0,1.168.357,1.493,1.525,1.493,6.911.032,13.789.032,20.7.032,1.363,0,1.655-.292,1.655-1.687v-25.6c0-1.2.324-1.525,1.525-1.525h20.8c1.233,0,1.525.324,1.525,1.557v25.665c0,1.265.324,1.557,1.59,1.557h20.635c1.363,0,1.655-.26,1.655-1.655V88.343a1.836,1.836,0,0,0-.681-1.557Z" transform="translate(-152.722 -42.846)"/>
          <path id="Path_3019" data-name="Path 3019" class="cls-1" d="M224.334,78.873v40.233c0,1.4-.292,1.655-1.655,1.655H202.044c-1.265,0-1.59-.292-1.59-1.557V93.539c0-1.233-.292-1.557-1.525-1.557h-20.8c-1.2,0-1.525.324-1.525,1.525v25.6c0,1.4-.292,1.687-1.655,1.687-6.911,0-13.789,0-20.7-.032-1.168,0-1.525-.324-1.525-1.493v-16.19h10.837a3.363,3.363,0,0,0,3.374-3.342v-34.2c6.878-5.97,13.725-11.973,20.571-17.943.844-.714,1.233-.714,2.044.032q17.088,14.844,34.1,29.688A1.836,1.836,0,0,1,224.334,78.873Z" transform="translate(-152.713 -33.376)"/>
          <path id="Path_3020" data-name="Path 3020" class="cls-1" d="M233.2,89.673a1.05,1.05,0,0,1-1.071.779H228.2c-1.33,0-2.628-.032-3.958,0a2.207,2.207,0,0,1-1.46-.519q-20.927-18.153-41.823-36.242c-.941-.811-1.265-.811-2.206,0-6.846,5.938-13.66,11.908-20.506,17.845V65.6a3.238,3.238,0,0,0-1.655-2.855q11.1-9.685,22.225-19.338c.811-.746,1.233-.746,2.077,0,6.424,5.581,12.881,11.161,19.305,16.742.1.065.162.162.26.227a5.19,5.19,0,0,0,.616.227,3.857,3.857,0,0,0,.195-.584V53.46c0-.973.389-1.363,1.363-1.4h8.89c.941.032,1.363.422,1.363,1.363V61.9c0,2.758,0,5.483-.032,8.241a1.992,1.992,0,0,0,.746,1.622l18.948,16.418a3.477,3.477,0,0,0,.324.292A1.063,1.063,0,0,1,233.2,89.673Z" transform="translate(-144.035 -42.846)"/>
        </g>
      </g>
      <rect id="Rectangle_1626" data-name="Rectangle 1626" class="cls-1" width="90.91" height="3.955" transform="translate(9.766 91.076)"/>
      <rect id="Rectangle_1627" data-name="Rectangle 1627" class="cls-1" width="108.94" height="3.955" transform="translate(0 98.983)"/>
    </g>
    <g id="Group_6487" data-name="Group 6487" transform="translate(147.113 64.424)">
      <g id="Group_6486" data-name="Group 6486">
        <g id="Group_6485" data-name="Group 6485">
          <g id="Group_6484" data-name="Group 6484">
            <path id="Path_3022" data-name="Path 3022" class="cls-1" d="M177,54.136V91.481a4.623,4.623,0,0,1-4.607,4.607H151.72a4.625,4.625,0,0,1-4.607-4.607V54.136a4.632,4.632,0,0,1,4.607-4.64h20.668a4.826,4.826,0,0,1,2.628.811A4.732,4.732,0,0,1,177,54.136Zm-2.336,37.345V54.136a2.309,2.309,0,0,0-1.557-2.174,2.4,2.4,0,0,0-.714-.1H151.72a2.272,2.272,0,0,0-2.271,2.271h0V91.481a2.3,2.3,0,0,0,2.271,2.271h20.668a2.3,2.3,0,0,0,2.271-2.271Z" transform="translate(-147.113 -49.496)"/>
            <path id="Path_3023" data-name="Path 3023" class="cls-1" d="M166.512,58.985v.065a6.871,6.871,0,0,1-.227,1.2,8.342,8.342,0,0,1-1.233,2.6c0,.032-.065.032-.1.065h-3.31c-.032,0-.065-.032-.1-.032v-.1c-.162-.973-.324-1.914-.454-2.888l-.487-2.92a.339.339,0,0,0-.26-.292.32.32,0,0,0-.357.162c0,.032-.032.1-.032.13-.324,1.59-.681,3.18-1.006,4.77-.032.195-.1.357-.13.552a1.391,1.391,0,0,0-.195-.26c-.13-.227-.26-.422-.389-.616a.3.3,0,0,0-.419-.1.3.3,0,0,0-.1.1c-.032.032-.032.065-.065.13-.389.681-.811,1.4-1.2,2.077a.225.225,0,0,1-.065.13c0-.032-.032-.065-.032-.1-.292-.746-.584-1.493-.908-2.239-.26-.649-.552-1.3-.811-1.947-.032-.13-.13-.162-.26-.162a.288.288,0,0,0-.26.13,4.091,4.091,0,0,0-.26.552c-.454.941-.876,1.882-1.3,2.823-.033.032-.033.1-.1.1h-1.914c-.032-.032-.065-.032-.065-.065A8.584,8.584,0,0,1,149.478,61a6.835,6.835,0,0,1-.454-2.109,6.466,6.466,0,0,1,.26-1.947,5.119,5.119,0,0,1,1.882-2.693,4.213,4.213,0,0,1,3.439-.779,4.494,4.494,0,0,1,2.531,1.428l.389.487a.247.247,0,0,0,.292.1c.065-.032.1-.1.162-.162a6.683,6.683,0,0,1,1.071-1.071,4.607,4.607,0,0,1,3.6-.779,4.3,4.3,0,0,1,2.174,1.168,5.361,5.361,0,0,1,1.622,3.245c.032.162.032.357.065.519Z" transform="translate(-142.827 -40.783)"/>
            <path id="Path_3024" data-name="Path 3024" class="cls-1" d="M162.933,59.737H163c-.13.227-6.067,5.581-6.716,6.067-.195-.1-6.554-5.938-6.619-6.067h.1c.487,0,.973-.032,1.46-.032h.032a.381.381,0,0,0,.357-.227c.357-.779.714-1.557,1.1-2.336.065-.162.13-.292.227-.487,0,.065.032.1.032.13.422,1.071.844,2.109,1.265,3.147.13.324.292.616.422.941a.223.223,0,0,0,.227.162.3.3,0,0,0,.26-.13c.26-.454.519-.876.746-1.3.195-.357.389-.681.584-1.038a.413.413,0,0,0,.1-.13c.081.143.169.286.26.422.162.26.292.487.454.746.065.13.162.13.292.13a.336.336,0,0,0,.263-.227c.292-1.46.616-2.953.938-4.413,0,0,0-.032.036,0a5.419,5.419,0,0,0,.127.714c.162,1.136.357,2.3.552,3.439a.612.612,0,0,0,.032.227c0,.13.1.195.227.227.357,0,.746,0,1.106.032Z" transform="translate(-141.389 -36.957)"/>
            <path id="Path_3025" data-name="Path 3025" class="cls-1" d="M162.347,61.426a1.168,1.168,0,1,1,0,2.336H150.731a1.168,1.168,0,0,1,0-2.336Z" transform="translate(-141.614 -22.718)"/>
          </g>
        </g>
      </g>
    </g>
  </g>
</svg>
