<?xml version="1.0" encoding="utf-8" standalone="no"?><svg xmlns="http://www.w3.org/2000/svg" xmlns:xlink="http://www.w3.org/1999/xlink" enable-background="new 0 0 190.4 251.9" fill="#000000" id="Layer_1" version="1.1" viewBox="0 0 190.4 251.9" x="0px" xml:space="preserve" y="0px">
<g id="change1_1"><path d="M180.6,16.3C170.4,1.9,153-2.7,136.3,1.5c-5.5,1.4-10.9,3-16.2,4.8  c-8.3,2.9-16.6,4.3-24.9,4.3c-8.3,0-16.6-1.4-24.9-4.3C65,4.5,59.5,2.8,54.1,1.5C37.4-2.7,20,1.9,9.8,16.3  C-0.9,31.3-2.4,52.7,3.3,69.9c8.4,25,21.5,47.1,19.9,74.5c-1.7,30.8-0.7,73,17.4,99.5c6,8.8,17.7,12.2,23.2,0.7  c6.9-14.7,5.1-30.6,3.3-46.4c-1.8-15.9-3.5-31.9,3.8-46.6c5-10,13.1-14.9,24.3-14.9c11.2,0,19.3,4.9,24.3,14.9  c7.3,14.8,5.6,30.7,3.8,46.6c-1.8,15.8-3.6,31.7,3.3,46.4c5.4,11.5,17.2,8.1,23.2-0.7c18.1-26.5,19.2-68.7,17.4-99.5  c-1.6-27.4,11.6-49.4,19.9-74.5C192.8,52.7,191.3,31.3,180.6,16.3z" fill="#ffffff" id="XMLID_3_"/></g>
</svg>