<?xml version="1.0" encoding="UTF-8"?><svg xmlns="http://www.w3.org/2000/svg" xmlns:xlink="http://www.w3.org/1999/xlink" height="512.0" preserveAspectRatio="xMidYMid meet" version="1.0" viewBox="0.0 0.0 512.0 512.0" width="512.0" zoomAndPan="magnify">
 <g id="change1_1"><rect fill="#dd4f43" height="512" rx="15%" width="512"/></g>
 <g id="change2_1"><path d="m56 257a126 126 0 0 1 212 -96l-33 33c-21-13-49-24-75-14a80 80 0 1 0 54 151c21-8 35-28 41-48l-72-1v-44h122c1 36-3 74-27 102a127 127 0 0 1 -222 -83zm327-56h36l1 37h36v37h-36l-1 36h-36v-36h-37v-37h37z" fill="#fff"/></g>
</svg>